<svg xmlns="http://www.w3.org/2000/svg" width="48" height="48" viewBox="0 0 48 48" fill="none">
  <circle cx="24" cy="24" r="20" fill="#F5F5F5" stroke="#E0E0E0" stroke-width="2"/>
  <path d="M32 20C32 16.6863 28.4183 14 24 14C19.5817 14 16 16.6863 16 20C16 23.3137 19.5817 26 24 26C24.7 26 25.3 25.9 26 25.8V34H32V20Z" fill="#66BB6A"/>
  <path d="M24 24C21.7909 24 20 22.2091 20 20C20 17.7909 21.7909 16 24 16C26.2091 16 28 17.7909 28 20C28 22.2091 26.2091 24 24 24Z" fill="#F5F5F5"/>
  <path d="M24 22C22.8954 22 22 21.1046 22 20C22 18.8954 22.8954 18 24 18C25.1046 18 26 18.8954 26 20C26 21.1046 25.1046 22 24 22Z" fill="#66BB6A"/>
  <path d="M18 28H22V34H18V28Z" fill="#66BB6A"/>
</svg>