<svg xmlns="http://www.w3.org/2000/svg" width="48" height="48" viewBox="0 0 48 48" fill="none">
  <circle cx="24" cy="24" r="20" fill="#F5F5F5" stroke="#E0E0E0" stroke-width="2"/>
  <path d="M24 14L14 24L24 34L34 24L24 14Z" fill="#42A5F5"/>
  <path d="M24 18L18 24L24 30L30 24L24 18Z" fill="#F5F5F5"/>
  <path d="M24 22L22 24L24 26L26 24L24 22Z" fill="#42A5F5"/>
  <path d="M16 14C14.8954 14 14 14.8954 14 16C14 17.1046 14.8954 18 16 18C17.1046 18 18 17.1046 18 16C18 14.8954 17.1046 14 16 14Z" fill="#42A5F5"/>
  <path d="M32 14C30.8954 14 30 14.8954 30 16C30 17.1046 30.8954 18 32 18C33.1046 18 34 17.1046 34 16C34 14.8954 33.1046 14 32 14Z" fill="#42A5F5"/>
  <path d="M16 30C14.8954 30 14 30.8954 14 32C14 33.1046 14.8954 34 16 34C17.1046 34 18 33.1046 18 32C18 30.8954 17.1046 30 16 30Z" fill="#42A5F5"/>
  <path d="M32 30C30.8954 30 30 30.8954 30 32C30 33.1046 30.8954 34 32 34C33.1046 34 34 33.1046 34 32C34 30.8954 33.1046 30 32 30Z" fill="#42A5F5"/>
</svg>