<svg xmlns="http://www.w3.org/2000/svg" width="48" height="48" viewBox="0 0 48 48" fill="none">
  <circle cx="24" cy="24" r="20" fill="#F5F5F5" stroke="#E0E0E0" stroke-width="2"/>
  <path d="M24 14C19.5817 14 16 17.5817 16 22C16 26.4183 19.5817 30 24 30C28.4183 30 32 26.4183 32 22C32 17.5817 28.4183 14 24 14Z" fill="#29B6F6"/>
  <path d="M24 18C21.7909 18 20 19.7909 20 22C20 24.2091 21.7909 26 24 26C26.2091 26 28 24.2091 28 22C28 19.7909 26.2091 18 24 18Z" fill="#F5F5F5"/>
  <path d="M24 20C22.8954 20 22 20.8954 22 22C22 23.1046 22.8954 24 24 24C25.1046 24 26 23.1046 26 22C26 20.8954 25.1046 20 24 20Z" fill="#29B6F6"/>
  <path d="M18 30L22 34H26L30 30H18Z" fill="#29B6F6"/>
  <path d="M22 30L24 32L26 30H22Z" fill="#F5F5F5"/>
</svg>