<svg xmlns="http://www.w3.org/2000/svg" width="48" height="48" viewBox="0 0 48 48" fill="none">
  <circle cx="24" cy="24" r="20" fill="#F5F5F5" stroke="#E0E0E0" stroke-width="2"/>
  <path d="M32 18H16V22H32V18Z" fill="#FF7043"/>
  <path d="M30 22H18V26H30V22Z" fill="#FF7043"/>
  <path d="M28 26H20V30H28V26Z" fill="#FF7043"/>
  <path d="M26 30H22V34H26V30Z" fill="#FF7043"/>
  <path d="M24 14C22.8954 14 22 14.8954 22 16C22 17.1046 22.8954 18 24 18C25.1046 18 26 17.1046 26 16C26 14.8954 25.1046 14 24 14Z" fill="#FF7043"/>
  <path d="M32 14C30.8954 14 30 14.8954 30 16C30 17.1046 30.8954 18 32 18C33.1046 18 34 17.1046 34 16C34 14.8954 33.1046 14 32 14Z" fill="#FF7043"/>
  <path d="M16 14C14.8954 14 14 14.8954 14 16C14 17.1046 14.8954 18 16 18C17.1046 18 18 17.1046 18 16C18 14.8954 17.1046 14 16 14Z" fill="#FF7043"/>
</svg>