<svg xmlns="http://www.w3.org/2000/svg" width="48" height="48" viewBox="0 0 48 48" fill="none">
  <circle cx="24" cy="24" r="20" fill="#F5F5F5" stroke="#E0E0E0" stroke-width="2"/>
  <circle cx="24" cy="24" r="10" fill="#EF5350"/>
  <path d="M24 18C20.6863 18 18 20.6863 18 24C18 27.3137 20.6863 30 24 30C27.3137 30 30 27.3137 30 24C30 20.6863 27.3137 18 24 18ZM24 28C21.7909 28 20 26.2091 20 24C20 21.7909 21.7909 20 24 20C26.2091 20 28 21.7909 28 24C28 26.2091 26.2091 28 24 28Z" fill="#F5F5F5"/>
  <path d="M16 14C14.8954 14 14 14.8954 14 16C14 17.1046 14.8954 18 16 18C17.1046 18 18 17.1046 18 16C18 14.8954 17.1046 14 16 14Z" fill="#EF5350"/>
  <path d="M32 14C30.8954 14 30 14.8954 30 16C30 17.1046 30.8954 18 32 18C33.1046 18 34 17.1046 34 16C34 14.8954 33.1046 14 32 14Z" fill="#EF5350"/>
  <path d="M16 30C14.8954 30 14 30.8954 14 32C14 33.1046 14.8954 34 16 34C17.1046 34 18 33.1046 18 32C18 30.8954 17.1046 30 16 30Z" fill="#EF5350"/>
  <path d="M32 30C30.8954 30 30 30.8954 30 32C30 33.1046 30.8954 34 32 34C33.1046 34 34 33.1046 34 32C34 30.8954 33.1046 30 32 30Z" fill="#EF5350"/>
</svg>