<svg xmlns="http://www.w3.org/2000/svg" width="48" height="48" viewBox="0 0 48 48" fill="none">
  <circle cx="24" cy="24" r="20" fill="#F5F5F5" stroke="#E0E0E0" stroke-width="2"/>
  <path d="M24 14C19.5817 14 16 17.5817 16 22V34H32V22C32 17.5817 28.4183 14 24 14Z" fill="#7E57C2"/>
  <path d="M24 18C21.7909 18 20 19.7909 20 22V30H28V22C28 19.7909 26.2091 18 24 18Z" fill="#F5F5F5"/>
  <path d="M24 22C22.8954 22 22 22.8954 22 24V28H26V24C26 22.8954 25.1046 22 24 22Z" fill="#7E57C2"/>
  <path d="M18 26C16.8954 26 16 26.8954 16 28C16 29.1046 16.8954 30 18 30C19.1046 30 20 29.1046 20 28C20 26.8954 19.1046 26 18 26Z" fill="#F5F5F5"/>
  <path d="M30 26C28.8954 26 28 26.8954 28 28C28 29.1046 28.8954 30 30 30C31.1046 30 32 29.1046 32 28C32 26.8954 31.1046 26 30 26Z" fill="#F5F5F5"/>
</svg>