<svg xmlns="http://www.w3.org/2000/svg" width="48" height="48" viewBox="0 0 48 48" fill="none">
  <circle cx="24" cy="24" r="20" fill="#F5F5F5" stroke="#E0E0E0" stroke-width="2"/>
  <path d="M24 14C19.5817 14 16 17.5817 16 22C16 26.4183 19.5817 30 24 30C28.4183 30 32 26.4183 32 22C32 17.5817 28.4183 14 24 14Z" fill="#F5F5F5"/>
  <path d="M24 14C21.7909 14 20 15.7909 20 18C20 20.2091 21.7909 22 24 22C26.2091 22 28 20.2091 28 18C28 15.7909 26.2091 14 24 14Z" fill="#EF5350"/>
  <path d="M24 22C21.7909 22 20 23.7909 20 26C20 28.2091 21.7909 30 24 30C26.2091 30 28 28.2091 28 26C28 23.7909 26.2091 22 24 22Z" fill="#3949AB"/>
  <path d="M16 22C14.8954 22 14 22.8954 14 24C14 25.1046 14.8954 26 16 26C17.1046 26 18 25.1046 18 24C18 22.8954 17.1046 22 16 22Z" fill="#3949AB"/>
  <path d="M32 22C30.8954 22 30 22.8954 30 24C30 25.1046 30.8954 26 32 26C33.1046 26 34 25.1046 34 24C34 22.8954 33.1046 22 32 22Z" fill="#EF5350"/>
  <path d="M24 30C22.8954 30 22 30.8954 22 32V34H26V32C26 30.8954 25.1046 30 24 30Z" fill="#3949AB"/>
</svg>