<svg xmlns="http://www.w3.org/2000/svg" width="48" height="48" viewBox="0 0 48 48" fill="none">
  <circle cx="24" cy="24" r="20" fill="#F5F5F5" stroke="#E0E0E0" stroke-width="2"/>
  <path d="M24 14C22.8954 14 22 14.8954 22 16C22 17.1046 22.8954 18 24 18C25.1046 18 26 17.1046 26 16C26 14.8954 25.1046 14 24 14Z" fill="#9E9E9E"/>
  <path d="M24 22C22.8954 22 22 22.8954 22 24C22 25.1046 22.8954 26 24 26C25.1046 26 26 25.1046 26 24C26 22.8954 25.1046 22 24 22Z" fill="#9E9E9E"/>
  <path d="M24 30C22.8954 30 22 30.8954 22 32C22 33.1046 22.8954 34 24 34C25.1046 34 26 33.1046 26 32C26 30.8954 25.1046 30 24 30Z" fill="#9E9E9E"/>
  <path d="M16 18C14.8954 18 14 18.8954 14 20C14 21.1046 14.8954 22 16 22C17.1046 22 18 21.1046 18 20C18 18.8954 17.1046 18 16 18Z" fill="#9E9E9E"/>
  <path d="M32 18C30.8954 18 30 18.8954 30 20C30 21.1046 30.8954 22 32 22C33.1046 22 34 21.1046 34 20C34 18.8954 33.1046 18 32 18Z" fill="#9E9E9E"/>
  <path d="M16 26C14.8954 26 14 26.8954 14 28C14 29.1046 14.8954 30 16 30C17.1046 30 18 29.1046 18 28C18 26.8954 17.1046 26 16 26Z" fill="#9E9E9E"/>
  <path d="M32 26C30.8954 26 30 26.8954 30 28C30 29.1046 30.8954 30 32 30C33.1046 30 34 29.1046 34 28C34 26.8954 33.1046 26 32 26Z" fill="#9E9E9E"/>
</svg>