<svg xmlns="http://www.w3.org/2000/svg" width="48" height="48" viewBox="0 0 48 48" fill="none">
  <circle cx="24" cy="24" r="20" fill="#F5F5F5" stroke="#E0E0E0" stroke-width="2"/>
  <path d="M24 14L16 22V34H32V22L24 14Z" fill="#FFA000"/>
  <path d="M24 18L20 22V30H28V22L24 18Z" fill="#F5F5F5"/>
  <path d="M24 22L22 24V28H26V24L24 22Z" fill="#FFA000"/>
  <path d="M16 18C14.8954 18 14 18.8954 14 20C14 21.1046 14.8954 22 16 22C17.1046 22 18 21.1046 18 20C18 18.8954 17.1046 18 16 18Z" fill="#FFA000"/>
  <path d="M32 18C30.8954 18 30 18.8954 30 20C30 21.1046 30.8954 22 32 22C33.1046 22 34 21.1046 34 20C34 18.8954 33.1046 18 32 18Z" fill="#FFA000"/>
</svg>