<svg xmlns="http://www.w3.org/2000/svg" width="48" height="48" viewBox="0 0 48 48" fill="none">
  <circle cx="24" cy="24" r="20" fill="#F5F5F5" stroke="#E0E0E0" stroke-width="2"/>
  <path d="M24 14C19.5817 14 16 17.5817 16 22C16 26.4183 19.5817 30 24 30C28.4183 30 32 26.4183 32 22C32 17.5817 28.4183 14 24 14ZM24 28C20.6863 28 18 25.3137 18 22C18 18.6863 20.6863 16 24 16C27.3137 16 30 18.6863 30 22C30 25.3137 27.3137 28 24 28Z" fill="#E53935"/>
  <path d="M24 18C21.7909 18 20 19.7909 20 22C20 24.2091 21.7909 26 24 26C26.2091 26 28 24.2091 28 22C28 19.7909 26.2091 18 24 18ZM24 24C22.8954 24 22 23.1046 22 22C22 20.8954 22.8954 20 24 20C25.1046 20 26 20.8954 26 22C26 23.1046 25.1046 24 24 24Z" fill="#E53935"/>
  <path d="M32 32C30.8954 32 30 32.8954 30 34C30 35.1046 30.8954 36 32 36C33.1046 36 34 35.1046 34 34C34 32.8954 33.1046 32 32 32Z" fill="#E53935"/>
  <path d="M16 32C14.8954 32 14 32.8954 14 34C14 35.1046 14.8954 36 16 36C17.1046 36 18 35.1046 18 34C18 32.8954 17.1046 32 16 32Z" fill="#E53935"/>
</svg>