<svg xmlns="http://www.w3.org/2000/svg" width="48" height="48" viewBox="0 0 48 48" fill="none">
  <circle cx="24" cy="24" r="20" fill="#F5F5F5" stroke="#E0E0E0" stroke-width="2"/>
  <path d="M16 18H32V22C32 26.4183 28.4183 30 24 30C19.5817 30 16 26.4183 16 22V18Z" fill="#26A69A"/>
  <path d="M20 22H28V24C28 26.2091 26.2091 28 24 28C21.7909 28 20 26.2091 20 24V22Z" fill="#F5F5F5"/>
  <path d="M24 14C22.8954 14 22 14.8954 22 16V18H26V16C26 14.8954 25.1046 14 24 14Z" fill="#26A69A"/>
  <path d="M24 30C22.8954 30 22 30.8954 22 32V34H26V32C26 30.8954 25.1046 30 24 30Z" fill="#26A69A"/>
  <path d="M18 32C16.8954 32 16 32.8954 16 34C16 35.1046 16.8954 36 18 36C19.1046 36 20 35.1046 20 34C20 32.8954 19.1046 32 18 32Z" fill="#26A69A"/>
  <path d="M30 32C28.8954 32 28 32.8954 28 34C28 35.1046 28.8954 36 30 36C31.1046 36 32 35.1046 32 34C32 32.8954 31.1046 32 30 32Z" fill="#26A69A"/>
</svg>