<svg width="400" height="400" xmlns="http://www.w3.org/2000/svg">
  <!-- 各种食物小图标，用于装饰 -->
  
  <!-- 苹果 -->
  <g id="apple" transform="translate(20, 20)" fill="#eeeeee" stroke="#dddddd" stroke-width="1">
    <path d="M25,0 C30,5 30,15 25,20 C35,20 45,30 45,45 C45,65 35,80 25,80 C20,80 15,75 10,75 C5,75 0,80 0,80 C0,80 -5,65 5,45 C10,35 20,30 15,15 C10,5 20,0 25,0 Z" />
    <path d="M25,0 C25,0 20,-5 25,-10 C30,-15 35,-10 35,-10" fill="none" />
  </g>
  
  <!-- 胡萝卜 -->
  <g id="carrot" transform="translate(80, 20)" fill="#eeeeee" stroke="#dddddd" stroke-width="1">
    <path d="M20,0 L25,5 L20,10 L25,15 L20,20 L25,25 L20,30 L25,35 L20,40 L15,40 L10,35 L15,30 L10,25 L15,20 L10,15 L15,10 L10,5 L15,0 Z" />
    <path d="M17,0 C17,0 25,-10 30,-5 C35,0 25,8 25,8" fill="none" />
    <path d="M23,0 C23,0 30,-15 37,-12 C44,-9 30,8 30,8" fill="none" />
  </g>
  
  <!-- 西红柿 -->
  <g id="tomato" transform="translate(140, 20)" fill="#eeeeee" stroke="#dddddd" stroke-width="1">
    <circle cx="20" cy="25" r="20" />
    <path d="M20,5 C20,5 15,-5 25,-5 C35,-5 30,5 30,5" fill="none" />
    <path d="M15,15 L25,15 M15,25 L25,25 M15,35 L25,35" stroke-dasharray="2,2" />
  </g>
  
  <!-- 面包 -->
  <g id="bread" transform="translate(200, 20)" fill="#eeeeee" stroke="#dddddd" stroke-width="1">
    <rect x="0" y="15" width="40" height="30" rx="5" ry="5" />
    <path d="M0,30 C0,10 40,10 40,30" fill="none" />
    <path d="M10,25 L30,25 M10,35 L30,35" stroke-dasharray="2,2" />
  </g>
  
  <!-- 鱼 -->
  <g id="fish" transform="translate(260, 30)" fill="#eeeeee" stroke="#dddddd" stroke-width="1">
    <path d="M40,20 C30,10 10,0 0,20 C10,40 30,30 40,20 Z" />
    <circle cx="35" cy="15" r="2" fill="#dddddd" />
    <path d="M0,20 L-10,10 M0,20 L-10,30" />
  </g>
  
  <!-- 肉 -->
  <g id="meat" transform="translate(20, 100)" fill="#eeeeee" stroke="#dddddd" stroke-width="1">
    <path d="M0,20 C0,10 10,0 30,0 C50,0 60,10 60,20 C60,30 50,40 30,40 C10,40 0,30 0,20 Z" />
    <path d="M15,15 L45,15 M15,25 L45,25" stroke-dasharray="2,2" />
  </g>
  
  <!-- 鸡腿 -->
  <g id="chicken" transform="translate(100, 100)" fill="#eeeeee" stroke="#dddddd" stroke-width="1">
    <path d="M0,0 C10,10 30,30 40,20 C50,10 40,0 30,10 C20,20 0,0 0,0 Z" />
    <path d="M30,10 L50,0" />
  </g>
  
  <!-- 米饭 -->
  <g id="rice" transform="translate(180, 100)" fill="#eeeeee" stroke="#dddddd" stroke-width="1">
    <path d="M0,20 C0,10 10,0 20,0 C30,0 40,10 40,20 C40,30 30,40 20,40 C10,40 0,30 0,20 Z" />
    <circle cx="10" cy="15" r="2" fill="#dddddd" />
    <circle cx="15" cy="25" r="2" fill="#dddddd" />
    <circle cx="25" cy="15" r="2" fill="#dddddd" />
    <circle cx="30" cy="25" r="2" fill="#dddddd" />
  </g>
  
  <!-- 碗 -->
  <g id="bowl" transform="translate(240, 100)" fill="#eeeeee" stroke="#dddddd" stroke-width="1">
    <path d="M0,10 C0,30 40,30 40,10 L35,0 L5,0 Z" />
    <path d="M5,0 C5,5 35,5 35,0" fill="none" />
  </g>
  
  <!-- 锅 -->
  <g id="pot" transform="translate(300, 100)" fill="#eeeeee" stroke="#dddddd" stroke-width="1">
    <path d="M5,10 L0,30 C0,40 50,40 50,30 L45,10 Z" />
    <path d="M10,10 L40,10 M10,0 L40,0" />
    <path d="M10,0 L10,10 M40,0 L40,10" />
    <path d="M15,20 C15,20 25,15 35,20" fill="none" />
  </g>
</svg>